<svg width="196" height="195" viewBox="0 0 196 195" fill="none" xmlns="http://www.w3.org/2000/svg">
<path d="M138.279 132.057C153.739 113.975 154.956 88.5142 142.999 69.3471L158.046 59.9647C173.99 85.5208 172.368 119.468 151.754 143.578C131.139 167.688 97.8564 174.565 70.1334 162.786L77.0638 146.463C97.856 155.298 122.818 150.139 138.279 132.057Z" fill="#FF4F12"/>
<path d="M52.7115 125.641C40.7535 106.474 41.9705 81.0138 57.4311 62.9314C72.8916 44.8491 97.8539 39.6909 118.646 48.5256L125.576 32.2027C97.8535 20.4232 64.5705 27.3007 43.9564 51.4105C23.3423 75.5203 21.7197 109.468 37.6637 135.024L52.7115 125.641Z" fill="#FF4F12"/>
</svg>
