<svg width="48" height="48" viewBox="0 0 48 48" fill="none" xmlns="http://www.w3.org/2000/svg">
<circle cx="24" cy="18" r="11" stroke="#F2F2F2" stroke-width="2"/>
<path d="M12 31L11.7574 30.0299L11.1754 30.1754L11.0299 30.7575L12 31ZM23.999 28L24.2414 27.0298C24.0822 26.99 23.9157 26.9901 23.7565 27.0299L23.999 28ZM36.0078 31L36.9782 30.7584L36.833 30.1754L36.2502 30.0298L36.0078 31ZM10.9701 39.2425L12.9701 31.2425L11.0299 30.7575L9.02986 38.7575L10.9701 39.2425ZM12.2426 31.9701L24.2416 28.9701L23.7565 27.0299L11.7574 30.0299L12.2426 31.9701ZM38.9704 38.7584L36.9782 30.7584L35.0374 31.2416L37.0296 39.2416L38.9704 38.7584ZM36.2502 30.0298L24.2414 27.0298L23.7566 28.9702L35.7654 31.9702L36.2502 30.0298Z" fill="#F2F2F2"/>
</svg>
